<?xml version="1.0" encoding="UTF-8" standalone="no"?>
<!-- Created with Inkscape (http://www.inkscape.org/) -->

<svg
   width="88.221832mm"
   height="191.01022mm"
   viewBox="0 0 88.221832 191.01022"
   version="1.1"
   id="svg10340"
   xml:space="preserve"
   sodipodi:docname="bg_1@2x.svg"
   inkscape:version="1.2.2 (732a01da63, 2022-12-09)"
   xmlns:inkscape="http://www.inkscape.org/namespaces/inkscape"
   xmlns:sodipodi="http://sodipodi.sourceforge.net/DTD/sodipodi-0.dtd"
   xmlns="http://www.w3.org/2000/svg"
   xmlns:svg="http://www.w3.org/2000/svg"><sodipodi:namedview
     id="namedview10342"
     pagecolor="#ffffff"
     bordercolor="#000000"
     borderopacity="0.0"
     inkscape:showpageshadow="2"
     inkscape:pageopacity="0.0"
     inkscape:pagecheckerboard="0"
     inkscape:deskcolor="#d1d1d1"
     inkscape:document-units="mm"
     showgrid="false"
     inkscape:zoom="0.92347471"
     inkscape:cx="362.76034"
     inkscape:cy="419.06941"
     inkscape:window-width="1920"
     inkscape:window-height="1017"
     inkscape:window-x="1912"
     inkscape:window-y="-8"
     inkscape:window-maximized="1"
     inkscape:current-layer="g10356" /><defs
     id="defs10337" /><g
     inkscape:label="Ebene 1"
     inkscape:groupmode="layer"
     id="layer1"
     transform="translate(-70.481706,-79.963827)"><g
       id="g10356"
       transform="translate(-49.027285,-3.2414734)"><path
         style="fill:#e6e6e5;stroke-width:0;fill-opacity:1"
         id="path59073"
         sodipodi:type="arc"
         sodipodi:cx="119.23267"
         sodipodi:cy="184.27838"
         sodipodi:rx="88.199997"
         sodipodi:ry="90.599998"
         sodipodi:start="4.7167956"
         sodipodi:end="1.5663292"
         sodipodi:arc-type="arc"
         d="m 119.62134,93.679263 a 88.199997,90.599998 0 0 1 87.81133,90.596377 88.199997,90.599998 0 0 1 -87.806,90.60184"
         sodipodi:open="true" /><path
         style="fill:#00907e;fill-opacity:1;stroke-width:0"
         d="m 179.61502,261.64803 c -10.39835,-0.96675 -19.5063,-8.65252 -22.29367,-18.81257 -1.0788,-3.93224 -1.13862,-9.31077 -0.14615,-13.14081 1.15908,-4.47305 3.43739,-8.39595 6.86933,-11.82791 5.07728,-5.07731 11.0211,-7.55116 18.14285,-7.55116 7.12176,0 13.06559,2.47385 18.14287,7.55116 5.07727,5.07731 7.55112,11.02116 7.55112,18.14292 0,5.09006 -1.21938,9.39373 -3.86365,13.63627 -5.18592,8.32047 -14.53644,12.91939 -24.4027,12.0021 z"
         id="path10358" /></g></g></svg>
