<?xml version="1.0" standalone="no"?>
<!DOCTYPE svg PUBLIC "-//W3C//DTD SVG 20010904//EN"
 "http://www.w3.org/TR/2001/REC-SVG-20010904/DTD/svg10.dtd">
<svg version="1.0" xmlns="http://www.w3.org/2000/svg"
 width="1612.000000pt" height="1340.000000pt" viewBox="0 0 1612.000000 1340.000000"
 preserveAspectRatio="xMidYMid meet">

<g transform="translate(0.000000,1340.000000) scale(0.100000,-0.100000)"
fill="#00907E" stroke="none">
<path d="M21 13396 c2 -2 137 -53 299 -114 2627 -983 4262 -1991 4981 -3071
477 -716 524 -1463 140 -2230 -115 -229 -162 -299 -541 -816 -635 -866 -1014
-1412 -1292 -1865 -454 -740 -689 -1306 -754 -1815 -24 -192 -15 -494 21 -665
68 -325 225 -657 457 -963 219 -290 649 -717 937 -932 661 -492 1744 -789
3226 -885 487 -31 1390 -41 1950 -20 1761 65 3734 288 6184 700 261 44 478 80
482 80 5 0 9 2789 9 6300 l0 6300 -8052 0 c-4428 0 -8049 -2 -8047 -4z"/>
</g>
</svg>
