<?xml version="1.0" encoding="UTF-8" standalone="no"?>
<!-- Created with Inkscape (http://www.inkscape.org/) -->

<svg
   width="20.128105mm"
   height="4.7112503mm"
   viewBox="0 0 20.128105 4.7112503"
   version="1.1"
   id="svg17617"
   inkscape:version="1.2.2 (732a01da63, 2022-12-09)"
   sodipodi:docname="logo.svg"
   inkscape:export-filename="logo.svg"
   inkscape:export-xdpi="92.119934"
   inkscape:export-ydpi="92.119934"
   inkscape:dataloss="true"
   xmlns:inkscape="http://www.inkscape.org/namespaces/inkscape"
   xmlns:sodipodi="http://sodipodi.sourceforge.net/DTD/sodipodi-0.dtd"
   xmlns="http://www.w3.org/2000/svg"
   xmlns:svg="http://www.w3.org/2000/svg">
  <sodipodi:namedview
     id="namedview17619"
     pagecolor="#ffffff"
     bordercolor="#000000"
     borderopacity="0.25"
     inkscape:showpageshadow="2"
     inkscape:pageopacity="0.0"
     inkscape:pagecheckerboard="0"
     inkscape:deskcolor="#d1d1d1"
     inkscape:document-units="mm"
     showgrid="false"
     inkscape:zoom="5.2239618"
     inkscape:cx="421.71058"
     inkscape:cy="405.05656"
     inkscape:window-width="1920"
     inkscape:window-height="1017"
     inkscape:window-x="1912"
     inkscape:window-y="-8"
     inkscape:window-maximized="1"
     inkscape:current-layer="layer1" />
  <defs
     id="defs17614" />
  <g
     inkscape:label="Ebene 1"
     inkscape:groupmode="layer"
     id="layer1"
     transform="translate(-90.744318,-94.033963)">
    <path
       d="m 123.06978,242.43698 c -0.0919,0.0558 -0.16485,0.13028 -0.21893,0.22375 -0.0541,0.0934 -0.0812,0.19427 -0.0812,0.30244 0,0.11158 0.027,0.21391 0.0812,0.30735 0.0541,0.0935 0.12703,0.16726 0.21893,0.2213 0.0918,0.0541 0.19184,0.0812 0.30007,0.0812 0.10496,0 0.20331,-0.027 0.29521,-0.0812 0.0918,-0.054 0.16393,-0.12783 0.21646,-0.2213 0.0525,-0.0934 0.0787,-0.19577 0.0787,-0.30735 0,-0.10817 -0.0262,-0.209 -0.0787,-0.30244 -0.0525,-0.0935 -0.12467,-0.16794 -0.21646,-0.22375 -0.0919,-0.0557 -0.19025,-0.0836 -0.29521,-0.0836 -0.10823,0 -0.20831,0.028 -0.30007,0.0836 m -1.11188,-0.60488 h 1.42674 c 0.2033,0 0.3919,0.0509 0.56578,0.15252 0.17378,0.10162 0.31154,0.23928 0.41324,0.41307 0.10164,0.17379 0.15251,0.36221 0.15251,0.56548 0,0.20339 -0.0509,0.39181 -0.15251,0.5656 -0.1017,0.17382 -0.23946,0.31145 -0.41324,0.41311 -0.17388,0.10162 -0.36248,0.15237 -0.56578,0.15237 h -0.89542 v 1.18036 h -0.53132 z"
       fill="#00534d"
       id="path15823"
       style="fill:#00907e;fill-opacity:1;stroke-width:0.352778;image-rendering:auto"
       clip-path="none"
       transform="translate(-24.565657,-146.52939)"
       inkscape:export-filename="path15823.svg"
       inkscape:export-xdpi="92.119934"
       inkscape:export-ydpi="92.119934" />
    <path
       d="m 124.68836,243.59263 h 0.74778 c 0.0853,0 0.15082,-0.0228 0.19682,-0.0688 0.0459,-0.046 0.0689,-0.11142 0.0689,-0.19671 v -1.91307 c 0,-0.0851 -0.023,-0.14992 -0.0689,-0.19426 -0.046,-0.0442 -0.11155,-0.0663 -0.19682,-0.0663 h -0.74778 v -0.50165 h 1.54482 v 2.67527 c 0,0.0853 0.0229,0.15075 0.0689,0.19671 0.0459,0.046 0.11144,0.0688 0.19678,0.0688 h 0.6986 v 0.50164 h -2.50906 z"
       fill="#00534d"
       id="path15825"
       style="fill:#00907e;fill-opacity:1;stroke-width:0.352778"
       clip-path="none"
       transform="translate(-24.565657,-146.52939)" />
    <path
       d="m 128.69796,243.35662 c 0.11148,0 0.20493,-0.0385 0.28043,-0.11553 0.0754,-0.077 0.11317,-0.16972 0.11317,-0.2779 0,-0.10822 -0.0377,-0.20082 -0.11317,-0.27778 -0.0755,-0.0771 -0.16895,-0.11568 -0.28043,-0.11568 -0.10823,0 -0.20006,0.0386 -0.27548,0.11568 -0.0755,0.077 -0.11317,0.16956 -0.11317,0.27778 0,0.10818 0.0376,0.20094 0.11317,0.2779 0.0754,0.0771 0.16725,0.11553 0.27548,0.11553 m 0,0.78689 c -0.25583,0 -0.48708,-0.0509 -0.6937,-0.15252 -0.20659,-0.10151 -0.36819,-0.24174 -0.48457,-0.42047 -0.11649,-0.17857 -0.17467,-0.38117 -0.17467,-0.60733 0,-0.2262 0.0582,-0.42865 0.17467,-0.60737 0.11638,-0.17858 0.27798,-0.31881 0.48457,-0.42047 0.20662,-0.1015 0.43787,-0.15237 0.6937,-0.15237 h 0.005 c 0.25583,0 0.48627,0.0509 0.69126,0.15237 0.20493,0.10166 0.36566,0.24189 0.48215,0.42047 0.11638,0.17872 0.17466,0.38117 0.17466,0.60737 0,0.22616 -0.0583,0.42876 -0.17466,0.60733 -0.11649,0.17873 -0.27722,0.31896 -0.48215,0.42047 -0.20499,0.10162 -0.43543,0.15252 -0.69126,0.15252 z"
       fill="#00534d"
       id="path15827"
       style="fill:#00907e;fill-opacity:1;stroke-width:0.352778"
       clip-path="none"
       transform="translate(-24.565657,-146.52939)" />
    <path
       d="m 130.32145,241.83208 h 2.1844 c 0.0787,0 0.14428,0.0239 0.19681,0.0713 0.0524,0.0476 0.0787,0.10901 0.0787,0.18446 0,0.0787 -0.0263,0.14189 -0.0787,0.18936 -0.0525,0.0475 -0.11807,0.0712 -0.19681,0.0712 h -1.24471 c -0.11807,0 -0.21569,0.0386 -0.2927,0.11557 -0.0771,0.0771 -0.11564,0.17462 -0.11564,0.29264 v 1.33763 h -0.53135 z"
       fill="#00534d"
       id="path15829"
       style="fill:#00907e;fill-opacity:1;stroke-width:0.352778"
       clip-path="none"
       transform="translate(-24.565657,-146.52939)" />
    <path
       d="m 134.03094,243.57298 c 0.10827,0 0.20828,-0.0278 0.30011,-0.0836 0.0918,-0.0557 0.16482,-0.13027 0.21897,-0.22371 0.0541,-0.0935 0.0812,-0.1943 0.0812,-0.30248 0,-0.11131 -0.0271,-0.21391 -0.0812,-0.30735 -0.0541,-0.0935 -0.12718,-0.16711 -0.21897,-0.22129 -0.0918,-0.054 -0.19184,-0.0811 -0.30011,-0.0811 -0.1082,0 -0.20828,0.0279 -0.30007,0.0836 -0.0919,0.0558 -0.16486,0.12963 -0.21894,0.2213 -0.0541,0.0918 -0.0812,0.19358 -0.0812,0.30489 0,0.10818 0.0271,0.209 0.0812,0.30248 0.0541,0.0934 0.12704,0.16806 0.21894,0.22371 0.0918,0.0558 0.19187,0.0836 0.30007,0.0836 m -0.0147,0.52129 c -0.20658,0 -0.39687,-0.0507 -0.57068,-0.1524 -0.17389,-0.10163 -0.31161,-0.23861 -0.41325,-0.41063 -0.1017,-0.17216 -0.1525,-0.36152 -0.1525,-0.56808 0,-0.20652 0.0508,-0.39588 0.1525,-0.56793 0.10164,-0.17217 0.23936,-0.30901 0.41325,-0.41063 0.17381,-0.10161 0.3641,-0.15252 0.57068,-0.15252 h 1.42184 v 2.26219 z"
       fill="#00534d"
       id="path15831"
       style="fill:#00907e;fill-opacity:1;stroke-width:0.352778"
       clip-path="none"
       transform="translate(-24.565657,-146.52939)" />
    <path
       style="fill:#00907e;fill-opacity:1;stroke:none;stroke-width:0;stroke-dasharray:none;stroke-opacity:1"
       d="m 92.684143,98.69478 c -1.519328,-0.274304 -2.374178,-1.927491 -1.714779,-3.316195 0.268934,-0.566379 0.752677,-1.006019 1.335139,-1.213412 0.31588,-0.112474 0.53459,-0.142869 0.91737,-0.127486 0.38312,0.01539 0.57749,0.06467 0.92045,0.233337 0.46691,0.229622 0.83969,0.601521 1.0699,1.067343 0.18839,0.381229 0.22867,0.568512 0.22696,1.055354 -9.5e-4,0.374176 -0.007,0.425426 -0.0674,0.622393 -0.23417,0.761921 -0.78597,1.339351 -1.51798,1.588492 -0.36462,0.124098 -0.7971,0.157437 -1.16967,0.09018 z"
       id="path18750"
       clip-path="none" />
  </g>
</svg>
